<?xml version="1.0" encoding="UTF-8"?><svg xmlns="http://www.w3.org/2000/svg" viewBox="0 0 2551.36 2547.56"><g id="a"><rect x="28.76" y="46.14" width="2482.36" height="2482.36" rx="370.12" ry="370.12" style="stroke:#00ff04; stroke-miterlimit:10;"/></g><g id="b"><rect x="211.76" y="229.32" width="1029.21" height="1029.21" rx="319.77" ry="319.77" style="fill:#f60; stroke:#00ff04; stroke-miterlimit:10;"/></g><g id="c"><rect x="1299.91" y="203.71" width="1029.21" height="1029.21" rx="319.77" ry="319.77" style="fill:red; stroke:#00ff04; stroke-miterlimit:10;"/></g><g id="d"><rect x="1320.21" y="1326.32" width="1029.21" height="1029.21" rx="319.77" ry="319.77" style="fill:#0c0; stroke:#00ff04; stroke-miterlimit:10;"/></g><g id="e"><rect x="211.76" y="1326.32" width="1029.21" height="1029.21" rx="319.77" ry="319.77" style="fill:#30f; stroke:#00ff04; stroke-miterlimit:10;"/></g><g id="f"><rect x="255.13" y="271.01" width="2021.41" height="2021.41" rx="395.98" ry="395.98" transform="translate(1277.07 -519.67) rotate(45)" style="fill:#f70; stroke:#00ff04; stroke-miterlimit:10;"/></g><g id="g"><g><path d="M350.46,1581.58V972.85c0-31.62,7.22-55.34,21.67-71.16,14.44-15.81,33.12-23.72,56.03-23.72s42.73,7.83,57.36,23.45c14.62,15.64,21.94,39.45,21.94,71.42v608.73c0,31.97-7.31,55.86-21.94,71.67s-33.75,23.72-57.36,23.72-41.14-8-55.77-23.98-21.94-39.78-21.94-71.41Z" style="fill:#fff;"/><path d="M1388.49,1349.27v148.42c0,19.72-1.95,35.48-5.83,47.28s-11.03,22.45-21.44,31.95-23.73,18.66-39.97,27.45c-46.77,25.25-91.77,43.67-135,55.23-43.25,11.56-90.36,17.36-141.33,17.36-59.41,0-113.55-9.14-162.41-27.41-48.88-18.27-90.53-44.8-124.98-79.58s-60.91-76.95-79.36-126.5c-18.47-49.53-27.69-104.88-27.69-166.02s8.95-115.06,26.89-164.97c17.94-49.89,44.31-92.23,79.12-127.02s77.17-61.39,127.11-79.84c49.94-18.44,106.55-27.67,169.84-27.67,52.03,0,98.09,6.94,138.19,20.81s72.61,31.36,97.58,52.44,43.78,43.39,56.44,66.92,19,44.44,19,62.69c0,19.69-7.33,36.45-21.97,50.33s-32.19,20.81-52.64,20.81c-11.3,0-22.14-2.66-32.55-7.98-10.41-5.31-19.14-12.77-26.19-22.36-19.31-30.3-35.64-53.2-48.98-68.7s-31.33-28.53-53.97-39.09c-22.66-10.56-51.53-15.86-86.62-15.86s-68.47,6.25-96.91,18.75-52.75,30.62-72.94,54.38-35.64,52.88-46.34,87.36c-10.72,34.5-16.06,72.69-16.06,114.56,0,90.8,20.8,160.66,62.41,209.58,41.59,48.92,99.61,73.38,174.05,73.38,36.16,0,70.12-4.75,101.91-14.28,31.77-9.53,63.98-23.11,96.64-40.77v-125.95h-121.12c-29.14,0-51.17-4.36-66.09-13.11s-22.38-23.61-22.38-44.61c0-17.12,6.23-31.3,18.73-42.48,12.48-11.19,29.45-16.8,50.92-16.8h177.86c21.81,0,40.28,1.94,55.41,5.78s27.36,12.42,36.69,25.7c9.31,13.3,13.98,33.23,13.98,59.81Z" style="fill:#fff;"/><path d="M2229.6,1349.27v148.42c0,19.72-1.95,35.48-5.83,47.28s-11.03,22.45-21.44,31.95-23.73,18.66-39.97,27.45c-46.77,25.25-91.77,43.67-135,55.23-43.25,11.56-90.36,17.36-141.33,17.36-59.41,0-113.55-9.14-162.41-27.41-48.88-18.27-90.53-44.8-124.98-79.58s-60.91-76.95-79.36-126.5c-18.47-49.53-27.69-104.88-27.69-166.02s8.95-115.06,26.89-164.97c17.94-49.89,44.31-92.23,79.12-127.02s77.17-61.39,127.11-79.84c49.94-18.44,106.55-27.67,169.84-27.67,52.03,0,98.09,6.94,138.19,20.81s72.61,31.36,97.58,52.44,43.78,43.39,56.44,66.92,19,44.44,19,62.69c0,19.69-7.33,36.45-21.97,50.33s-32.19,20.81-52.64,20.81c-11.3,0-22.14-2.66-32.55-7.98-10.41-5.31-19.14-12.77-26.19-22.36-19.31-30.3-35.64-53.2-48.98-68.7s-31.33-28.53-53.97-39.09c-22.66-10.56-51.53-15.86-86.62-15.86s-68.47,6.25-96.91,18.75-52.75,30.62-72.94,54.38-35.64,52.88-46.34,87.36c-10.72,34.5-16.06,72.69-16.06,114.56,0,90.8,20.8,160.66,62.41,209.58,41.59,48.92,99.61,73.38,174.05,73.38,36.16,0,70.12-4.75,101.91-14.28,31.77-9.53,63.98-23.11,96.64-40.77v-125.95h-121.12c-29.14,0-51.17-4.36-66.09-13.11s-22.38-23.61-22.38-44.61c0-17.12,6.23-31.3,18.73-42.48,12.48-11.19,29.45-16.8,50.92-16.8h177.86c21.81,0,40.28,1.94,55.41,5.78s27.36,12.42,36.69,25.7c9.31,13.3,13.98,33.23,13.98,59.81Z" style="fill:#fff;"/></g></g></svg>